<svg width="7" height="7" viewBox="0 0 7 7" fill="none" xmlns="http://www.w3.org/2000/svg">
<path d="M5.76954 0.583374H2.95204C2.71287 0.583374 2.51454 0.781707 2.51454 1.02087C2.51454 1.26004 2.71287 1.45837 2.95204 1.45837H4.7137L0.210371 5.96171C0.0412044 6.13087 0.0412044 6.41087 0.210371 6.58004C0.297871 6.66754 0.408705 6.70837 0.519538 6.70837C0.630371 6.70837 0.741204 6.66754 0.828704 6.58004L5.33204 2.07671V3.83837C5.33204 4.07754 5.53037 4.27587 5.76954 4.27587C6.00871 4.27587 6.20704 4.07754 6.20704 3.83837V1.02087C6.20704 0.781707 6.00871 0.583374 5.76954 0.583374Z" fill="#31D3A3"/>
</svg>
