<svg width="7" height="7" viewBox="0 0 7 7" fill="none" xmlns="http://www.w3.org/2000/svg">
<path d="M6.26954 0.583374H3.45204C3.21287 0.583374 3.01454 0.781707 3.01454 1.02087C3.01454 1.26004 3.21287 1.45837 3.45204 1.45837H5.2137L0.710371 5.96171C0.541204 6.13087 0.541204 6.41087 0.710371 6.58004C0.797871 6.66754 0.908705 6.70837 1.01954 6.70837C1.13037 6.70837 1.2412 6.66754 1.3287 6.58004L5.83204 2.07671V3.83837C5.83204 4.07754 6.03037 4.27587 6.26954 4.27587C6.50871 4.27587 6.70704 4.07754 6.70704 3.83837V1.02087C6.70704 0.781707 6.50871 0.583374 6.26954 0.583374Z" fill="#FE3766"/>
</svg>
