<svg width="7" height="7" viewBox="0 0 7 7" fill="none" xmlns="http://www.w3.org/2000/svg">
<path d="M6.26954 0.083374H3.45204C3.21287 0.083374 3.01454 0.281707 3.01454 0.520874C3.01454 0.760041 3.21287 0.958374 3.45204 0.958374H5.2137L0.710371 5.46171C0.541204 5.63087 0.541204 5.91087 0.710371 6.08004C0.797871 6.16754 0.908705 6.20837 1.01954 6.20837C1.13037 6.20837 1.2412 6.16754 1.3287 6.08004L5.83204 1.57671V3.33837C5.83204 3.57754 6.03037 3.77587 6.26954 3.77587C6.50871 3.77587 6.70704 3.57754 6.70704 3.33837V0.520874C6.70704 0.281707 6.50871 0.083374 6.26954 0.083374Z" fill="#1775E4"/>
</svg>
