<svg width="7" height="7" viewBox="0 0 7 7" fill="none" xmlns="http://www.w3.org/2000/svg">
<path d="M5.76954 0.083374H2.95204C2.71287 0.083374 2.51454 0.281707 2.51454 0.520874C2.51454 0.760041 2.71287 0.958374 2.95204 0.958374H4.7137L0.210371 5.46171C0.0412044 5.63087 0.0412044 5.91087 0.210371 6.08004C0.297871 6.16754 0.408705 6.20837 0.519538 6.20837C0.630371 6.20837 0.741204 6.16754 0.828704 6.08004L5.33204 1.57671V3.33837C5.33204 3.57754 5.53037 3.77587 5.76954 3.77587C6.00871 3.77587 6.20704 3.57754 6.20704 3.33837V0.520874C6.20704 0.281707 6.00871 0.083374 5.76954 0.083374Z" fill="#F9BA33"/>
</svg>
